<svg width="16" height="16" viewBox="0 0 16 16" fill="none" xmlns="http://www.w3.org/2000/svg">
<path d="M11.5327 6.33905L8.98131 2H7.01869L4.46729 6.33905H1L2.30841 11.779C2.50467 12.6857 3.28972 13.3333 4.20561 13.3333H11.7944C12.7103 13.3333 13.4299 12.6857 13.6916 11.779L15 6.33905H11.5327ZM7.60748 3.16571H8.39252L10.2897 6.40381H5.71028L7.60748 3.16571ZM12.6449 11.52C12.5794 11.7143 12.514 11.9086 12.3178 12.0381C12.1869 12.1676 11.9907 12.2324 11.7944 12.2324H4.20561C4.00935 12.2324 3.81308 12.1676 3.68224 12.0381C3.5514 11.9086 3.42056 11.7143 3.35514 11.5848L2.37383 7.50476H13.6262L12.6449 11.52Z" fill="black"/>
</svg>
