<svg width="94" height="24" viewBox="0 0 94 24" fill="none" xmlns="http://www.w3.org/2000/svg">
<rect width="94" height="24" fill="white"/>
<path d="M10.1914 15V10.3408L10.4576 10.7402L13.417 15H14.7482V8.0368H13.417V12.6858L12.9766 12.0611L10.1914 8.0368H8.8704V15H10.1914ZM22.3646 15L22.1394 13.9658H18.8114V12.0099H21.2997L21.0846 10.9552H18.8114V9.08128H21.8526L21.6478 8.0368H17.4904V15H22.3646ZM32.9396 8.04704L30.8404 15.0102H29.714L28.3009 9.92096L26.8878 15.0102H25.7614L23.6724 8.11872L25.0036 7.9344L26.3553 13.1773L27.6558 8.04704H28.987L30.3079 13.1773L31.6084 8.04704H32.9396ZM41.6203 12.2762H39.7771L40.6885 9.85952L41.6203 12.2762ZM40.156 8.0368L37.4424 15H38.7736L39.388 13.3616H42.0299L42.6546 15.1024L43.9858 14.9181L41.2824 8.0368H40.156ZM48.1006 9.14272C48.3941 9.14272 48.6433 9.18027 48.8481 9.25536C49.0529 9.33045 49.2099 9.44992 49.3191 9.61376C49.4352 9.77077 49.4932 9.97899 49.4932 10.2384C49.4932 10.4842 49.4318 10.6821 49.3089 10.8323C49.1928 10.9757 49.0324 11.0849 48.8276 11.16C48.6228 11.2351 48.3873 11.2726 48.121 11.2726H47.2814V9.14272H48.1006ZM45.9604 8.0368V15H47.2814V12.3581H47.8958C47.9982 12.3581 48.1006 12.3615 48.203 12.3683C48.3122 12.3683 48.4214 12.3649 48.5306 12.3581L50.0052 15H51.4183L49.7185 11.9997C50.0598 11.8358 50.3397 11.6003 50.5582 11.2931C50.7834 10.9791 50.8961 10.607 50.8961 10.177C50.8961 9.68544 50.7698 9.28267 50.5172 8.96864C50.2714 8.65461 49.9403 8.42251 49.5239 8.27232C49.1075 8.11531 48.6433 8.0368 48.1313 8.0368H45.9604ZM55.5306 9.14272C55.8241 9.14272 56.0733 9.18027 56.2781 9.25536C56.4829 9.33045 56.6399 9.44992 56.7491 9.61376C56.8652 9.77077 56.9232 9.97899 56.9232 10.2384C56.9232 10.4842 56.8618 10.6821 56.7389 10.8323C56.6228 10.9757 56.4624 11.0849 56.2576 11.16C56.0528 11.2351 55.8173 11.2726 55.551 11.2726H54.7114V9.14272H55.5306ZM53.3904 8.0368V15H54.7114V12.3581H55.3258C55.4282 12.3581 55.5306 12.3615 55.633 12.3683C55.7422 12.3683 55.8514 12.3649 55.9606 12.3581L57.4352 15H58.8483L57.1485 11.9997C57.4898 11.8358 57.7697 11.6003 57.9882 11.2931C58.2134 10.9791 58.3261 10.607 58.3261 10.177C58.3261 9.68544 58.1998 9.28267 57.9472 8.96864C57.7014 8.65461 57.3703 8.42251 56.9539 8.27232C56.5375 8.11531 56.0733 8.0368 55.5613 8.0368H53.3904ZM62.1414 15V8.0368H60.8204V15H62.1414ZM65.4436 7.9344L64.1124 8.11872L66.8158 15.0102H67.9422L70.6558 8.04704H69.3246L67.4097 13.1773L65.4436 7.9344ZM76.0403 12.2762H74.1971L75.1085 9.85952L76.0403 12.2762ZM74.576 8.0368L71.8624 15H73.1936L73.808 13.3616H76.4499L77.0746 15.1024L78.4058 14.9181L75.7024 8.0368H74.576ZM84.7836 13.9658H81.7014V8.0368H80.3804V15H84.9782L84.7836 13.9658Z" fill="#666666"/>
</svg>
